<svg id="Layer_5" enable-background="new 0 0 64 64" height="38" viewBox="0 0 64 64" width="38" xmlns="http://www.w3.org/2000/svg"><g><path d="m59 55h-21c-.551 0-1-.448-1-1v-3h6.797l-1.114-6h-5.683v-2h5.312l-1.038-5.591-4.274-.329v-6.08c0-1.654-1.346-3-3-3h-1v2h1c.551 0 1 .448 1 1v23c0 .92.425 1.735 1.08 2.286-.665.714-1.08 1.664-1.08 2.714 0 2.206 1.794 4 4 4s4-1.794 4-4c0-.732-.212-1.409-.556-2h13.113c-.345.591-.557 1.268-.557 2 0 2.206 1.794 4 4 4s4-1.794 4-4-1.794-4-4-4z"/><path d="m54.442 38.421-11.103-.853 1.008 5.432h9.266z"/><path d="m61 48v-3h-5.717l-1.086 6h3.803c1.654 0 3-1.346 3-3z"/><path d="m52.165 51 1.086-6h-8.533l1.114 6z"/><path d="m61 38.926-4.554-.35-.801 4.424h5.355z"/><path d="m44 23h3v2.779c0 .673.548 1.221 1.221 1.221.276 0 .547-.095.764-.268l4.664-3.732h6.351c.551 0 1-.448 1-1v-12c0-.552-.449-1-1-1h-16c-.551 0-1 .448-1 1v12c0 .552.449 1 1 1zm3-8h4v-4h2v4h4v2h-4v4h-2v-4h-4z"/><path d="m9.358 57.065c.21-.034.422-.065.642-.065.732 0 1.409.212 2 .556v-7.556h-3.82z"/><path d="m10 59c-1.103 0-2 .897-2 2h4c0-1.103-.897-2-2-2z"/><path d="m14 20c1.654 0 3-1.346 3-3v-5h-.171c-1.754 0-3.42-.573-4.785-1.631-.849.818-1.902 1.35-3.044 1.546v5.085c0 1.654 1.346 3 3 3z"/><path d="m9.191 22.094.213-.841c-1.435-.881-2.404-2.45-2.404-4.253v-7h1c1.022 0 1.984-.398 2.707-1.121l1.293-1.293.707.707c1.101 1.101 2.565 1.707 4.122 1.707h2.171v7c0 1.915-1.095 3.563-2.681 4.403l.355.71 2.042.411c1.473.295 2.826.947 3.988 1.876.187-.383.296-.8.296-1.238 0-.562-.165-1.106-.477-1.574-.996-1.495-1.523-3.235-1.523-5.031v-5.557c0-4.411-3.589-8-8-8s-8 3.589-8 8v5.557c0 1.796-.527 3.536-1.523 5.031-.312.468-.477 1.013-.477 1.574 0 .644.231 1.248.618 1.741 1.441-1.501 3.377-2.535 5.573-2.809z"/><path d="m13 26c1.399 0 2.648-.754 3.332-1.914l-.045-.009c-.602-.119-1.127-.52-1.402-1.07l-.522-1.044c-.122.009-.239.037-.363.037h-2c-.24 0-.47-.038-.701-.071l-.161.644c-.184.732-.78 1.282-1.506 1.45.673 1.196 1.938 1.977 3.368 1.977z"/><path d="m13.718 40c-.515 1.175-1.687 2-3.05 2-.625 0-1.235-.175-1.765-.506l-.962-.601c-1.271 2.152-1.941 4.589-1.941 7.107h14c0-2.845-.889-5.666-2.511-8z"/><path d="m24.926 29.34-2.845-2.845c-1.017-1.018-2.298-1.705-3.706-1.997-.927 2.101-3.018 3.502-5.375 3.502-2.348 0-4.417-1.38-5.352-3.457-2.743 1.088-4.648 3.762-4.648 6.829 0 2.122.904 4.083 2.451 5.464l1.799-2.25-1.161-.726-.045-.494c-.029-.318-.044-.637-.044-.956v-.174c0-1.617.382-3.237 1.105-4.684l1.789.895c-.585 1.17-.894 2.481-.894 3.789v.174c0 .097.001.193.005.289l4.429 2.769c.896.559 1.438 1.494 1.529 2.532h3.19l.74-4.437c.071-.428.107-.866.107-1.3v-.16c0-.632-.279-1.948-.386-2.402l.403-1.723 4.384 3.262c1.182.945 2.955.992 4.184.115l1.539-1.099-1.694-2.118z"/><path d="m30.779 25c-.276 0-.547.095-.764.268l-2.024 1.62 1.763 2.203 1.218-.87c.644-.461 1.029-1.208 1.029-2-.001-.673-.549-1.221-1.222-1.221z"/><path d="m10.668 40c.735 0 1.332-.597 1.332-1.331v-.377c0-.462-.234-.884-.625-1.129l-2.416-1.51-1.875 2.345 2.88 1.8c.211.132.455.202.704.202z"/><path d="m16 59c-1.103 0-2 .897-2 2h4c0-1.103-.897-2-2-2z"/><path d="m16.642 57.065 1.178-7.065h-3.82v7.556c.591-.344 1.268-.556 2-.556.22 0 .432.031.642.065z"/></g></svg>