<svg id="Layer_5" enable-background="new 0 0 64 64" height="35" viewBox="0 0 64 64" width="35" xmlns="http://www.w3.org/2000/svg"><g><path d="m37 31c0-1.654-1.346-3-3-3h-.38c.243-.555.38-1.158.38-1.779 0-1.777-1.445-3.221-3.221-3.221-.728 0-1.442.25-2.012.705l-3.693 2.955-.861-.86c.51-.779.787-1.686.787-2.638 0-.958-.281-1.886-.813-2.684-.776-1.165-1.187-2.521-1.187-3.921v-5.557c0-5.514-4.486-10-10-10s-10 4.486-10 10v5.557c0 1.4-.411 2.756-1.188 3.922-.531.797-.812 1.725-.812 2.683 0 1.268.5 2.463 1.363 3.356-.867 1.422-1.363 3.088-1.363 4.854 0 3.244 1.643 6.209 4.395 7.929l.852.533c-1.47 2.47-2.247 5.271-2.247 8.166v2h2.153l1.321 7.924c-.892.734-1.474 1.833-1.474 3.076v2h6 2 6v-2c0-1.243-.582-2.342-1.474-3.076l1.321-7.924h2.153v-2c0-3.29-1.05-6.547-2.948-9.232l.813-4.876c.09-.538.135-1.085.135-1.629v-.16c0-.078-.012-.155-.014-.233l1.165.932c.967.772 2.18 1.198 3.417 1.198 1.146 0 2.246-.353 3.179-1.019l4.174-2.981h2.079c.551 0 1 .448 1 1v23c0 .92.425 1.735 1.08 2.286-.665.714-1.08 1.664-1.08 2.714 0 2.206 1.794 4 4 4s4-1.794 4-4c0-.732-.212-1.409-.556-2h13.113c-.345.591-.557 1.268-.557 2 0 2.206 1.794 4 4 4s4-1.794 4-4-1.794-4-4-4h-21c-.551 0-1-.448-1-1v-1h21c2.757 0 5-2.243 5-5v-10.926l-26-2zm-34-7.838c0-.562.165-1.106.477-1.574.996-1.495 1.523-3.235 1.523-5.031v-5.557c0-4.411 3.589-8 8-8s8 3.589 8 8v5.557c0 1.796.527 3.536 1.523 5.031.312.468.477 1.013.477 1.574 0 .437-.109.855-.295 1.237-1.162-.929-2.515-1.581-3.988-1.876l-2.042-.411-.355-.71c1.585-.839 2.68-2.487 2.68-4.402v-7h-2.171c-1.557 0-3.021-.606-4.122-1.707l-.707-.707-1.293 1.293c-.723.723-1.685 1.121-2.707 1.121h-1v7c0 1.803.969 3.372 2.404 4.252l-.213.841c-2.196.275-4.132 1.309-5.573 2.81-.387-.493-.618-1.097-.618-1.741zm11-3.162h-2c-1.654 0-3-1.346-3-3v-5.085c1.142-.196 2.195-.728 3.044-1.546 1.364 1.058 3.031 1.631 4.785 1.631h.171v5c0 1.654-1.346 3-3 3zm-2.862 2.573.161-.644c.231.033.461.071.701.071h2c.124 0 .241-.028.363-.037l.522 1.044c.275.551.8.951 1.402 1.07l.045.009c-.684 1.16-1.933 1.914-3.332 1.914-1.43 0-2.695-.781-3.368-1.977.726-.168 1.322-.718 1.506-1.45zm.237 14.59c.391.245.625.667.625 1.129v.377c0 .734-.597 1.331-1.332 1.331-.25 0-.493-.07-.706-.202l-2.88-1.8 1.875-2.345zm-3.195 12.837h3.82v7.556c-.591-.344-1.268-.556-2-.556-.22 0-.432.031-.642.065zm-.18 11c0-1.103.897-2 2-2s2 .897 2 2zm6 0c0-1.103.897-2 2-2s2 .897 2 2zm2.642-3.935c-.21-.034-.422-.065-.642-.065-.732 0-1.409.212-2 .556v-7.556h3.82zm-10.642-9.065c0-2.518.67-4.955 1.941-7.107l.962.601c.531.331 1.141.506 1.765.506 1.363 0 2.535-.825 3.05-2h3.77c1.623 2.334 2.512 5.155 2.512 8zm20.584-16.646c-1.229.877-3.002.83-4.184-.115l-2.948-2.358c-.142-.413-.303-.819-.498-1.209l-.06-.119-1.789.895.06.119c.546 1.091.835 2.315.835 3.536v.16c0 .435-.036.872-.107 1.301l-.74 4.436h-3.19c-.091-1.038-.633-1.973-1.529-2.532l-4.421-2.763c-.003-.098-.013-.196-.013-.295v-.174c0-1.309.309-2.619.895-3.789l-1.789-.895c-.609 1.219-.96 2.562-1.061 3.922l-.515-.322-1.06 1.695 2.781 1.738-1.8 2.25c-1.547-1.38-2.451-3.341-2.451-5.463 0-3.067 1.905-5.741 4.648-6.829.935 2.077 3.004 3.457 5.352 3.457 2.357 0 4.448-1.401 5.375-3.502 1.407.292 2.688.979 3.706 1.997l2.845 2.845 1.503-1.203 1.694 2.118zm4.387-3.133-1.218.87-1.763-2.203 2.024-1.62c.218-.173.489-.268.765-.268.673 0 1.221.548 1.221 1.221 0 .792-.385 1.539-1.029 2zm10.029 30.779c0 1.103-.897 2-2 2s-2-.897-2-2 .897-2 2-2 2 .897 2 2zm20 0c0 1.103-.897 2-2 2s-2-.897-2-2 .897-2 2-2 2 .897 2 2zm-24-14h5.683l1.114 6h-6.797zm16.251 0-1.086 6h-6.333l-1.114-6zm-8.904-2-1.008-5.433 11.103.854-.829 4.579zm13.653 8h-3.803l1.086-6h5.717v3c0 1.654-1.346 3-3 3zm3-8h-5.355l.801-4.424 4.554.35zm-19.726-5.591 1.038 5.591h-5.312v-5.92z"/><path d="m60 7h-16c-1.654 0-3 1.346-3 3v12c0 1.654 1.346 3 3 3h1v.779c0 1.777 1.445 3.221 3.221 3.221.728 0 1.442-.25 2.012-.705l4.118-3.295h5.649c1.654 0 3-1.346 3-3v-12c0-1.654-1.346-3-3-3zm1 15c0 .552-.449 1-1 1h-6.351l-4.665 3.732c-.216.173-.487.268-.763.268-.673 0-1.221-.548-1.221-1.221v-2.779h-3c-.551 0-1-.448-1-1v-12c0-.552.449-1 1-1h16c.551 0 1 .448 1 1z"/><path d="m53 11h-2v4h-4v2h4v4h2v-4h4v-2h-4z"/></g></svg>